<svg viewBox="0 0 200 280" xmlns="http://www.w3.org/2000/svg" role="img" aria-label="Filodendro">
  <rect x="0" y="0" width="200" height="280" rx="14" fill="#eef6f0"/>
  <rect x="6" y="6" width="188" height="268" rx="10" fill="#ffffff" stroke="#e0ece4" stroke-width="1"/>
  <g transform="translate(0,4)"><path d="M100 190 L100 120" stroke="#2f5c3a" stroke-width="6" fill="none" stroke-linecap="round"/><path d="M100 140 C60 130 45 95 60 60 C90 70 105 100 100 140 Z" fill="#2f7a4d"/><path d="M100 130 C140 118 158 82 145 48 C112 60 96 92 100 130 Z" fill="#2f7a4d" opacity="0.85"/><path d="M100 155 C75 150 62 128 68 100 C92 106 104 128 100 155 Z" fill="#2f7a4d" opacity="0.7"/><ellipse cx="100" cy="188" rx="34" ry="10" fill="#6b4a34"/></g>
  <text x="100" y="232" font-family="Verdana, Arial, sans-serif" font-size="15" font-weight="700" fill="#1a3d2b" text-anchor="middle">Filodendro</text>
</svg>